<svg xmlns="http://www.w3.org/2000/svg" xmlns:xlink="http://www.w3.org/1999/xlink" width="1000" zoomAndPan="magnify" viewBox="0 0 750 749.999995" height="1000" preserveAspectRatio="xMidYMid meet" version="1.0"><defs><filter x="0%" y="0%" width="100%" height="100%" id="c33c2c8670"><feColorMatrix values="0 0 0 0 1 0 0 0 0 1 0 0 0 0 1 0 0 0 1 0" color-interpolation-filters="sRGB"/></filter><g/><mask id="4376301147"><g filter="url(#c33c2c8670)"><rect x="-75" width="900" fill="#000000" y="-74.999999" height="899.999994" fill-opacity="0.5686"/></g></mask><clipPath id="980b240364"><path d="M 0.0390625 0.460938 L 61.363281 0.460938 L 61.363281 88.644531 L 0.0390625 88.644531 Z M 0.0390625 0.460938 " clip-rule="nonzero"/></clipPath><clipPath id="478d60c2d6"><rect x="0" width="62" y="0" height="89"/></clipPath><clipPath id="0057dc8930"><path d="M 214.785156 110.359375 L 493 110.359375 L 493 286.609375 L 214.785156 286.609375 Z M 214.785156 110.359375 " clip-rule="nonzero"/></clipPath><clipPath id="1cf7144037"><path d="M 90.152344 282.023438 L 646.652344 282.023438 L 646.652344 534.023438 L 90.152344 534.023438 Z M 90.152344 282.023438 " clip-rule="nonzero"/></clipPath><mask id="22c54f8705"><g filter="url(#c33c2c8670)"><rect x="-75" width="900" fill="#000000" y="-74.999999" height="899.999994" fill-opacity="0.2863"/></g></mask><clipPath id="393bf2524c"><path d="M 156 145 L 251 145 L 251 236 L 156 236 Z M 156 145 " clip-rule="nonzero"/></clipPath><clipPath id="fbfb10b527"><path d="M 349.480469 -0.539062 L 505.238281 202.308594 L 156.648438 469.976562 L 0.890625 267.128906 Z M 349.480469 -0.539062 " clip-rule="nonzero"/></clipPath><clipPath id="7c0fe03ff8"><path d="M 349.480469 -0.539062 L 505.238281 202.308594 L 156.648438 469.976562 L 0.890625 267.128906 Z M 349.480469 -0.539062 " clip-rule="nonzero"/></clipPath><clipPath id="d0d034d169"><path d="M 360 130 L 454 130 L 454 221 L 360 221 Z M 360 130 " clip-rule="nonzero"/></clipPath><clipPath id="9e16c8314c"><path d="M 349.480469 -0.539062 L 505.238281 202.308594 L 156.648438 469.976562 L 0.890625 267.128906 Z M 349.480469 -0.539062 " clip-rule="nonzero"/></clipPath><clipPath id="f9918a6d98"><path d="M 349.480469 -0.539062 L 505.238281 202.308594 L 156.648438 469.976562 L 0.890625 267.128906 Z M 349.480469 -0.539062 " clip-rule="nonzero"/></clipPath><clipPath id="499315b42b"><path d="M 261 230 L 355 230 L 355 321 L 261 321 Z M 261 230 " clip-rule="nonzero"/></clipPath><clipPath id="df31f9731a"><path d="M 349.480469 -0.539062 L 505.238281 202.308594 L 156.648438 469.976562 L 0.890625 267.128906 Z M 349.480469 -0.539062 " clip-rule="nonzero"/></clipPath><clipPath id="9f20bfb34c"><path d="M 349.480469 -0.539062 L 505.238281 202.308594 L 156.648438 469.976562 L 0.890625 267.128906 Z M 349.480469 -0.539062 " clip-rule="nonzero"/></clipPath><clipPath id="37d59823d3"><path d="M 62 260 L 156 260 L 156 351 L 62 351 Z M 62 260 " clip-rule="nonzero"/></clipPath><clipPath id="78383f5b6b"><path d="M 349.480469 -0.539062 L 505.238281 202.308594 L 156.648438 469.976562 L 0.890625 267.128906 Z M 349.480469 -0.539062 " clip-rule="nonzero"/></clipPath><clipPath id="a15e00a088"><path d="M 349.480469 -0.539062 L 505.238281 202.308594 L 156.648438 469.976562 L 0.890625 267.128906 Z M 349.480469 -0.539062 " clip-rule="nonzero"/></clipPath><clipPath id="06c02dedca"><rect x="0" width="506" y="0" height="472"/></clipPath></defs><rect x="-75" width="900" fill="#ffffff" y="-74.999999" height="899.999994" fill-opacity="1"/><rect x="-75" width="900" fill="#ffffff" y="-74.999999" height="899.999994" fill-opacity="1"/><rect x="-75" width="900" fill="#ffffff" y="-74.999999" height="899.999994" fill-opacity="1"/><g mask="url(#4376301147)"><g transform="matrix(1, 0, 0, 1, 323, 169)"><g clip-path="url(#478d60c2d6)"><g clip-path="url(#980b240364)"><path fill="#ddc1a7" d="M 61.164062 63.070312 C 61.195312 63.277344 61.242188 63.488281 61.257812 63.699219 C 61.371094 65.34375 61.070312 66.949219 59.972656 68.164062 C 59.011719 69.160156 57.933594 70.007812 56.738281 70.703125 C 55.5625 71.359375 54.355469 71.949219 53.113281 72.46875 C 51.230469 73.355469 49.238281 74.046875 47.617188 75.402344 C 46.550781 76.21875 45.5625 77.121094 44.65625 78.113281 C 43.734375 79.320312 42.886719 80.574219 42.109375 81.878906 C 41.300781 83.113281 40.402344 84.207031 38.804688 84.476562 C 38.496094 84.527344 38.230469 84.925781 37.972656 85.191406 C 37.6875 85.484375 37.464844 85.839844 37.160156 86.109375 C 36.136719 86.996094 34.859375 87.332031 33.59375 87.675781 C 31.851562 88.152344 30.09375 88.648438 28.265625 88.238281 C 27.050781 87.984375 25.859375 87.648438 24.691406 87.234375 C 23.691406 86.886719 22.789062 86.371094 21.980469 85.6875 C 21.175781 85 20.523438 84.191406 20.019531 83.261719 C 18.324219 80.050781 17.628906 76.566406 17.546875 72.941406 C 17.5625 70.996094 17.390625 69.066406 17.027344 67.152344 C 16.664062 65.332031 15.988281 63.632812 14.992188 62.0625 C 14 60.492188 12.757812 59.152344 11.265625 58.042969 C 9.65625 56.828125 8.074219 55.589844 6.496094 54.335938 C 4.578125 52.804688 2.894531 51.046875 1.445312 49.066406 C 1.121094 48.652344 0.863281 48.199219 0.664062 47.714844 C 0.46875 47.226562 0.339844 46.722656 0.28125 46.199219 C 0.222656 45.679688 0.234375 45.15625 0.320312 44.640625 C 0.40625 44.121094 0.5625 43.625 0.78125 43.148438 C 1.800781 40.746094 3.273438 38.613281 5.605469 37.246094 C 6.402344 36.792969 7.21875 36.386719 8.058594 36.023438 C 9.015625 35.5625 10 35.164062 11.007812 34.828125 C 13.164062 34.171875 15.328125 33.585938 17.386719 32.613281 C 19.738281 31.53125 21.5625 29.878906 22.867188 27.648438 C 23.101562 27.332031 23.257812 26.976562 23.335938 26.589844 C 23.410156 25.609375 23.871094 24.773438 24.195312 23.882812 C 24.921875 21.71875 25.261719 19.496094 25.21875 17.214844 C 25.261719 13.054688 25.886719 8.984375 27.097656 5 C 27.433594 3.824219 28 2.773438 28.800781 1.847656 C 29.394531 1.101562 30.160156 0.621094 31.09375 0.410156 C 32.410156 0.164062 33.703125 0.257812 34.96875 0.691406 C 37.082031 1.375 38.796875 2.679688 40.324219 4.214844 C 42.847656 6.714844 44.75 9.621094 46.03125 12.929688 C 47.097656 15.585938 47.59375 18.34375 47.527344 21.203125 C 47.402344 24.308594 47.4375 27.414062 47.636719 30.515625 C 47.902344 33.117188 48.332031 35.695312 48.925781 38.242188 C 49.292969 39.785156 49.746094 41.308594 50.285156 42.800781 C 50.503906 43.359375 50.765625 43.898438 51.070312 44.417969 C 51.230469 44.730469 51.464844 45.011719 51.601562 45.335938 C 52.632812 47.8125 54.300781 49.859375 55.960938 51.925781 C 57.007812 53.164062 57.945312 54.484375 58.769531 55.882812 C 60.007812 58.113281 61.027344 60.453125 61.164062 63.070312 Z M 61.164062 63.070312 " fill-opacity="1" fill-rule="nonzero"/></g></g></g></g><g clip-path="url(#0057dc8930)"><path fill="#000000" d="M 399.027344 282.617188 L 490.914062 282.617188 C 491.457031 282.617188 491.957031 282.84375 492.320312 283.207031 C 492.683594 283.570312 492.910156 284.066406 492.910156 284.613281 C 492.910156 285.15625 492.683594 285.65625 492.320312 286.019531 C 491.957031 286.382812 491.457031 286.609375 490.914062 286.609375 L 378.632812 286.609375 C 376.417969 286.582031 374.273438 286.472656 372.121094 286.355469 C 369.738281 286.226562 367.339844 286.101562 364.816406 286.101562 L 363.378906 286.101562 C 363.226562 285.664062 363.015625 285.183594 362.890625 284.757812 C 362.753906 284.347656 362.664062 283.960938 362.582031 283.570312 C 362.417969 282.769531 362.390625 282.027344 362.507812 281.316406 C 362.625 280.601562 362.890625 279.9375 363.289062 279.320312 C 363.671875 278.75 364.171875 278.230469 364.777344 277.785156 C 365.351562 277.378906 366.03125 277.035156 366.824219 276.769531 C 367.105469 276.652344 367.386719 276.5625 367.667969 276.488281 L 368.539062 276.289062 L 368.832031 276.144531 L 369.113281 275.910156 C 369.195312 275.835938 369.265625 275.753906 369.3125 275.652344 C 369.367188 275.546875 369.394531 275.417969 369.414062 275.265625 L 369.414062 275.238281 C 369.449219 275.007812 369.421875 274.738281 369.367188 274.429688 C 369.304688 274.101562 369.203125 273.730469 369.066406 273.320312 C 368.648438 272.269531 367.976562 271.023438 367.042969 269.617188 C 366.304688 268.519531 365.414062 267.304688 364.34375 265.988281 C 363.363281 270.597656 362.246094 274.5 360.972656 277.6875 C 359.574219 281.199219 357.984375 283.878906 356.203125 285.691406 L 355.65625 286.238281 C 353.886719 286.375 352.085938 286.375 350.296875 286.417969 C 348.988281 286.546875 347.882812 286.410156 346.992188 285.992188 C 346.410156 285.746094 345.929688 285.402344 345.539062 284.964844 C 345.15625 284.539062 344.875 284.03125 344.683594 283.449219 C 344.566406 283.132812 344.484375 282.816406 344.429688 282.515625 C 344.375 282.207031 344.339844 281.925781 344.3125 281.664062 L 344.3125 281.617188 C 344.3125 281.117188 344.375 280.664062 344.5 280.238281 C 344.636719 279.800781 344.839844 279.402344 345.101562 279.03125 C 345.355469 278.675781 345.675781 278.367188 346.039062 278.105469 C 346.402344 277.851562 346.820312 277.632812 347.28125 277.46875 C 347.574219 277.371094 347.898438 277.289062 348.234375 277.222656 L 349.015625 277.117188 C 349.261719 276.84375 349.507812 276.417969 349.761719 275.828125 C 350.089844 275.074219 350.40625 274.082031 350.707031 272.859375 C 351.078125 271.351562 351.40625 269.535156 351.707031 267.402344 C 351.996094 265.289062 352.261719 262.847656 352.488281 260.097656 L 352.496094 259.941406 C 353.113281 255.476562 353.113281 251.59375 352.503906 248.304688 C 352.195312 246.753906 351.761719 245.339844 351.179688 244.066406 C 350.617188 242.816406 349.90625 241.699219 349.0625 240.699219 C 347.582031 239.511719 346.472656 238.066406 345.746094 236.386719 C 345.019531 234.699219 344.675781 232.765625 344.71875 230.597656 C 344.765625 228.574219 345.15625 226.339844 345.902344 223.917969 C 346.628906 221.53125 347.691406 218.953125 349.082031 216.175781 L 349.191406 215.59375 L 349.261719 215.003906 C 349.28125 214.585938 349.253906 214.214844 349.179688 213.898438 C 349.109375 213.605469 349 213.351562 348.84375 213.152344 L 348.835938 213.132812 C 348.679688 212.917969 348.453125 212.726562 348.164062 212.554688 C 347.835938 212.371094 347.4375 212.226562 346.964844 212.109375 L 346.191406 211.964844 L 345.300781 211.871094 C 344.15625 211.910156 343.140625 211.710938 342.25 211.273438 C 341.347656 210.828125 340.585938 210.140625 339.960938 209.214844 C 339.414062 208.421875 338.996094 207.453125 338.695312 206.316406 C 338.40625 205.203125 338.214844 203.914062 338.132812 202.441406 C 338.078125 201.753906 338.097656 200.945312 338.078125 200.238281 C 338.578125 200.128906 339.304688 199.917969 339.769531 199.875 C 340.167969 199.800781 340.539062 199.683594 340.886719 199.546875 C 341.222656 199.410156 341.539062 199.238281 341.832031 199.054688 C 342.121094 198.847656 342.394531 198.613281 342.628906 198.359375 C 342.867188 198.113281 343.085938 197.839844 343.285156 197.539062 C 344.375 194.898438 345.675781 193.339844 346.9375 192.359375 C 348.054688 191.496094 349.109375 191.105469 349.980469 190.84375 C 349.671875 189.789062 349.425781 188.855469 349.253906 188.046875 C 349.027344 186.976562 348.925781 186.09375 348.960938 185.433594 L 348.960938 185.339844 C 349.007812 184.75 349.152344 184.242188 349.390625 183.824219 C 349.644531 183.382812 350 183.035156 350.460938 182.792969 C 350.914062 182.5625 351.398438 182.472656 351.914062 182.519531 C 352.386719 182.5625 352.886719 182.71875 353.394531 183.007812 C 353.996094 183.355469 354.75 183.945312 355.621094 184.777344 C 356.394531 185.515625 357.257812 186.429688 358.210938 187.546875 C 360.238281 187.917969 362.035156 188.527344 363.597656 189.363281 C 365.222656 190.234375 366.605469 191.359375 367.730469 192.722656 C 368.894531 194.144531 369.777344 195.816406 370.367188 197.722656 C 370.949219 199.609375 371.257812 201.734375 371.273438 204.101562 L 371.273438 204.277344 C 371.191406 205.429688 371.230469 206.582031 371.355469 207.714844 C 371.492188 208.859375 371.738281 209.992188 372.082031 211.101562 C 372.417969 212.207031 372.890625 213.308594 373.464844 214.386719 C 373.964844 215.320312 374.535156 216.257812 375.191406 217.164062 C 377.035156 214.351562 378.507812 211.402344 379.613281 208.34375 C 380.824219 205.011719 381.613281 201.535156 381.984375 197.914062 C 382.339844 194.210938 382.25 190.332031 381.730469 186.304688 C 381.214844 182.273438 380.261719 178.082031 378.871094 173.734375 L 378.804688 173.570312 C 378.652344 172.96875 378.535156 172.371094 378.441406 171.789062 C 378.34375 171.21875 378.269531 170.648438 378.207031 170.082031 C 377.988281 167.976562 378.078125 166.0625 378.46875 164.339844 C 378.871094 162.59375 379.578125 161.042969 380.585938 159.671875 C 381.578125 158.300781 382.886719 157.140625 384.476562 156.207031 C 386.046875 155.28125 387.917969 154.5625 390.0625 154.0625 C 390.699219 153.910156 391.34375 153.78125 391.996094 153.671875 C 392.660156 153.5625 393.359375 153.464844 394.078125 153.382812 L 394.386719 153.382812 C 395.902344 153.464844 397.339844 153.390625 398.683594 153.15625 C 399.992188 152.929688 401.21875 152.546875 402.328125 152.011719 C 403.425781 151.496094 404.453125 150.8125 405.386719 149.980469 C 406.34375 149.136719 407.214844 148.128906 408.003906 146.976562 L 408.121094 146.800781 L 408.132812 146.71875 C 408.121094 146.65625 408.078125 146.574219 407.996094 146.492188 C 407.632812 146.15625 407.078125 145.8125 406.316406 145.46875 C 405.550781 145.132812 404.589844 144.789062 403.390625 144.46875 L 403.136719 144.351562 C 400.265625 143.089844 397.929688 141.710938 396.121094 140.195312 C 394.285156 138.660156 392.988281 136.992188 392.234375 135.175781 L 392.132812 134.984375 L 392.132812 134.855469 C 392.050781 134.640625 391.925781 134.429688 391.753906 134.214844 C 391.542969 133.941406 391.261719 133.667969 390.925781 133.386719 C 390.5 133.058594 389.980469 132.734375 389.382812 132.425781 C 388.816406 132.125 388.15625 131.835938 387.410156 131.5625 L 385.757812 130.945312 L 386.183594 129.238281 C 386.464844 127.988281 386.566406 126.714844 386.492188 125.464844 C 386.429688 124.191406 386.183594 122.929688 385.773438 121.734375 C 385.484375 120.886719 385.109375 120.0625 384.675781 119.273438 C 384.429688 118.835938 384.15625 118.402344 383.855469 117.992188 C 383.621094 118.671875 383.367188 119.34375 383.085938 120.007812 C 382.65625 121.015625 382.160156 122.003906 381.59375 122.976562 C 380.839844 124.308594 379.988281 125.582031 379.042969 126.777344 C 378.105469 127.960938 377.070312 129.074219 375.945312 130.121094 L 375.789062 130.273438 L 375.664062 130.335938 C 374.78125 130.9375 373.980469 131.570312 373.273438 132.242188 C 372.566406 132.914062 371.9375 133.613281 371.429688 134.332031 C 370.902344 135.058594 370.457031 135.828125 370.101562 136.628906 C 369.75 137.425781 369.484375 138.261719 369.304688 139.132812 L 369.265625 139.3125 L 369.238281 139.339844 C 368.457031 141.703125 367.550781 143.941406 366.523438 146.066406 C 365.488281 148.199219 364.316406 150.234375 363 152.148438 C 361.726562 154.054688 360.320312 155.859375 358.785156 157.550781 C 357.273438 159.210938 355.640625 160.78125 353.878906 162.25 C 349.707031 168.886719 346.019531 175.195312 342.832031 181.167969 C 339.632812 187.167969 336.925781 192.828125 334.726562 198.140625 C 332.527344 203.46875 330.839844 208.441406 329.640625 213.078125 C 328.449219 217.699219 327.75 221.992188 327.539062 225.941406 C 327.539062 226.160156 327.503906 226.441406 327.484375 226.667969 L 326.996094 227.222656 C 323.925781 230.390625 321.527344 234.363281 319.808594 238.777344 C 317.972656 243.488281 316.902344 248.714844 316.574219 253.996094 C 316.320312 258.664062 316.839844 264.253906 318.128906 269.691406 C 319.300781 274.636719 321.097656 279.4375 323.496094 283.277344 L 323.507812 283.296875 C 323.699219 283.632812 323.808594 284.003906 323.816406 284.375 C 323.824219 284.75 323.742188 285.128906 323.570312 285.464844 L 323.550781 285.503906 C 323.351562 285.847656 323.070312 286.121094 322.742188 286.308594 C 322.417969 286.5 322.035156 286.601562 321.636719 286.601562 L 216.878906 286.601562 C 216.316406 286.601562 215.816406 286.375 215.441406 286.019531 C 215.0625 285.65625 214.835938 285.148438 214.835938 284.59375 C 214.835938 284.050781 215.070312 283.542969 215.441406 283.179688 C 215.804688 282.824219 216.316406 282.597656 216.878906 282.597656 L 303.691406 282.597656 L 302.238281 281.863281 C 299.042969 280.109375 296.078125 277.949219 293.472656 275.4375 C 290.910156 272.96875 288.675781 270.164062 286.902344 267.105469 C 285.167969 264.074219 283.886719 260.851562 283.078125 257.546875 C 282.261719 254.195312 281.925781 250.757812 282.070312 247.335938 C 282.226562 243.941406 282.84375 240.554688 283.941406 237.289062 C 285.015625 234.121094 286.53125 231.0625 288.503906 228.230469 C 288.777344 227.675781 289.09375 227.175781 289.476562 226.738281 C 289.867188 226.285156 290.3125 225.878906 290.820312 225.53125 C 291.328125 225.167969 291.902344 224.859375 292.5 224.644531 C 293.101562 224.425781 293.726562 224.289062 294.371094 224.242188 C 295.007812 224.199219 295.644531 224.234375 296.261719 224.351562 C 296.871094 224.472656 297.46875 224.660156 298.042969 224.933594 C 298.613281 225.214844 299.160156 225.578125 299.660156 226.015625 C 300.113281 226.414062 300.523438 226.886719 300.847656 227.410156 C 301.210938 227.957031 301.503906 228.539062 301.703125 229.136719 C 301.902344 229.71875 302.019531 230.324219 302.039062 230.941406 C 302.085938 231.585938 302.039062 232.214844 301.914062 232.832031 C 301.792969 233.402344 301.59375 233.957031 301.332031 234.492188 L 301.332031 234.546875 L 301.257812 234.683594 C 300.367188 236.296875 299.605469 237.886719 298.976562 239.4375 C 298.351562 240.992188 297.84375 242.507812 297.453125 243.996094 C 296.707031 246.9375 296.425781 249.75 296.578125 252.390625 C 296.734375 255.09375 297.351562 257.628906 298.386719 259.96875 C 299.414062 262.300781 300.859375 264.445312 302.695312 266.351562 C 304.527344 268.257812 306.773438 269.9375 309.378906 271.351562 C 310.398438 271.914062 311.460938 272.433594 312.570312 272.902344 C 313.332031 273.230469 314.121094 273.539062 314.929688 273.820312 C 314.011719 270.90625 313.359375 267.847656 312.960938 264.734375 C 312.496094 261.132812 312.378906 257.445312 312.585938 253.808594 C 312.914062 248.1875 314.050781 242.625 315.984375 237.570312 C 317.800781 232.832031 320.328125 228.527344 323.5625 225.007812 C 323.824219 220.941406 324.578125 216.554688 325.796875 211.882812 C 327.03125 207.132812 328.765625 202.0625 330.984375 196.652344 C 333.246094 191.195312 336.015625 185.386719 339.296875 179.25 C 342.566406 173.132812 346.347656 166.679688 350.625 159.917969 L 350.761719 159.574219 L 351.105469 159.363281 C 352.761719 157.992188 354.332031 156.515625 355.777344 154.917969 C 357.195312 153.355469 358.492188 151.703125 359.65625 149.953125 C 360.855469 148.191406 361.9375 146.332031 362.878906 144.378906 C 363.835938 142.425781 364.660156 140.367188 365.371094 138.214844 C 365.605469 137.089844 365.96875 136.019531 366.433594 134.992188 C 366.894531 133.96875 367.476562 132.988281 368.148438 132.054688 C 368.820312 131.117188 369.59375 130.246094 370.457031 129.410156 C 371.3125 128.59375 372.265625 127.824219 373.300781 127.105469 C 374.265625 126.207031 375.152344 125.234375 375.960938 124.21875 C 376.761719 123.222656 377.480469 122.148438 378.117188 121.023438 C 378.761719 119.855469 379.332031 118.648438 379.796875 117.394531 C 380.242188 116.1875 380.605469 114.933594 380.867188 113.644531 L 381.53125 110.367188 L 384.121094 112.539062 C 385.394531 113.589844 386.5 114.808594 387.410156 116.140625 C 388.335938 117.492188 389.0625 118.964844 389.570312 120.5 C 390.027344 121.851562 390.324219 123.25 390.445312 124.65625 C 390.554688 125.917969 390.535156 127.1875 390.371094 128.457031 C 390.890625 128.695312 391.371094 128.949219 391.816406 129.203125 C 392.425781 129.558594 392.96875 129.910156 393.433594 130.273438 L 393.449219 130.292969 C 394.078125 130.808594 394.613281 131.355469 395.03125 131.917969 C 395.449219 132.488281 395.765625 133.105469 395.957031 133.742188 C 396.503906 135.003906 397.484375 136.191406 398.894531 137.335938 C 400.347656 138.507812 402.253906 139.621094 404.617188 140.683594 C 406.050781 141.082031 407.277344 141.539062 408.285156 142.019531 C 409.339844 142.527344 410.175781 143.089844 410.777344 143.6875 C 411.648438 144.523438 412.128906 145.421875 412.21875 146.367188 C 412.3125 147.328125 412.003906 148.308594 411.300781 149.296875 C 410.304688 150.742188 409.203125 152.003906 407.988281 153.054688 C 406.769531 154.117188 405.441406 154.988281 404 155.671875 C 402.582031 156.34375 401.054688 156.832031 399.417969 157.132812 C 397.820312 157.421875 396.121094 157.53125 394.332031 157.449219 C 393.742188 157.511719 393.160156 157.59375 392.585938 157.683594 C 392.015625 157.785156 391.453125 157.894531 390.925781 158.019531 C 389.253906 158.402344 387.808594 158.945312 386.617188 159.628906 C 385.429688 160.308594 384.464844 161.132812 383.757812 162.078125 C 383.058594 163.011719 382.578125 164.113281 382.3125 165.371094 C 382.039062 166.660156 381.996094 168.125 382.148438 169.757812 C 382.222656 170.582031 382.414062 171.519531 382.605469 172.488281 L 382.640625 172.644531 C 384.128906 177.191406 385.136719 181.601562 385.683594 185.859375 C 386.238281 190.179688 386.320312 194.34375 385.929688 198.339844 C 385.527344 202.359375 384.636719 206.21875 383.285156 209.902344 C 381.929688 213.589844 380.097656 217.109375 377.796875 220.460938 L 377.742188 220.523438 L 380.878906 224.152344 C 382.367188 225.859375 383.875 227.558594 385.355469 229.28125 C 386.074219 230.109375 386.828125 230.933594 387.609375 231.75 C 388.398438 232.585938 389.234375 233.429688 390.117188 234.28125 C 391.007812 235.152344 391.933594 236.035156 392.898438 236.925781 C 393.804688 237.769531 394.785156 238.648438 395.839844 239.582031 L 395.941406 239.628906 L 396.003906 239.703125 C 398.8125 242.507812 401.027344 245.738281 402.617188 249.175781 C 404.253906 252.71875 405.226562 256.503906 405.507812 260.316406 C 405.742188 263.253906 405.578125 266.234375 405.015625 269.144531 C 404.597656 271.277344 403.972656 273.386719 403.117188 275.425781 C 404.125 274.65625 405.097656 273.820312 406.023438 272.929688 C 407.476562 271.523438 408.839844 269.953125 410.09375 268.238281 C 413.808594 261.058594 414.074219 255.53125 412.703125 250.984375 C 411.320312 246.398438 408.257812 242.722656 405.40625 239.3125 C 403.199219 236.660156 401.101562 234.128906 399.773438 231.394531 C 398.421875 228.609375 397.867188 225.632812 398.8125 222.175781 C 399.128906 220.96875 399.621094 219.824219 400.238281 218.78125 C 400.875 217.707031 401.65625 216.71875 402.542969 215.847656 C 403.433594 214.976562 404.445312 214.222656 405.523438 213.617188 C 406.585938 213.023438 407.730469 212.554688 408.949219 212.253906 C 410.167969 211.945312 411.410156 211.816406 412.628906 211.84375 C 413.882812 211.871094 415.117188 212.074219 416.289062 212.425781 C 417.472656 212.753906 418.605469 213.253906 419.652344 213.886719 C 420.707031 214.53125 421.6875 215.320312 422.566406 216.246094 L 422.585938 216.273438 C 422.941406 216.691406 423.121094 217.226562 423.09375 217.734375 C 423.078125 218.246094 422.867188 218.734375 422.449219 219.097656 C 422.058594 219.480469 421.550781 219.660156 421.042969 219.652344 C 420.53125 219.640625 420.015625 219.433594 419.625 219.042969 L 419.605469 219.023438 C 419.007812 218.363281 418.324219 217.808594 417.609375 217.363281 C 416.851562 216.902344 416.035156 216.546875 415.191406 216.300781 C 414.328125 216.039062 413.445312 215.902344 412.574219 215.882812 C 411.691406 215.867188 410.792969 215.964844 409.921875 216.183594 C 409.058594 216.402344 408.242188 216.730469 407.46875 217.15625 C 406.6875 217.589844 405.960938 218.136719 405.316406 218.753906 C 404.6875 219.359375 404.132812 220.050781 403.679688 220.820312 C 403.246094 221.566406 402.898438 222.382812 402.664062 223.253906 C 401.992188 225.6875 402.480469 227.902344 403.589844 230.054688 C 404.734375 232.277344 406.550781 234.457031 408.460938 236.734375 L 408.46875 236.75 C 414.9375 244.53125 422.324219 253.433594 413.574219 270.234375 L 413.484375 270.398438 L 413.363281 270.515625 C 411.394531 273.257812 409.175781 275.652344 406.722656 277.695312 C 404.34375 279.675781 401.734375 281.328125 398.910156 282.652344 Z M 394.476562 280.183594 L 396.484375 279.375 C 398.410156 276.632812 399.792969 273.648438 400.644531 270.5625 C 401.546875 267.3125 401.855469 263.953125 401.609375 260.652344 C 401.335938 257.265625 400.484375 253.925781 399.039062 250.8125 C 397.65625 247.816406 395.730469 245.019531 393.277344 242.589844 C 392.304688 241.734375 391.324219 240.84375 390.34375 239.9375 C 389.328125 238.992188 388.34375 238.058594 387.417969 237.152344 C 386.5 236.234375 385.636719 235.34375 384.8125 234.484375 C 383.976562 233.601562 383.175781 232.75 382.429688 231.914062 C 381.660156 231.085938 380.867188 230.125 380.113281 229.261719 C 377.390625 226.148438 373.445312 221.648438 372.347656 220.113281 C 371.421875 218.863281 370.601562 217.574219 369.929688 216.273438 C 369.257812 214.984375 368.714844 213.660156 368.304688 212.335938 C 367.867188 210.992188 367.566406 209.613281 367.40625 208.214844 C 367.242188 206.835938 367.214844 205.429688 367.3125 204.011719 C 367.285156 202.140625 367.058594 200.472656 366.613281 199.027344 C 366.179688 197.59375 365.535156 196.359375 364.679688 195.335938 C 363.835938 194.308594 362.773438 193.472656 361.492188 192.828125 C 360.191406 192.175781 358.664062 191.714844 356.902344 191.433594 L 356.183594 191.3125 L 355.703125 190.769531 C 354.902344 189.824219 354.203125 189.035156 353.597656 188.390625 L 353.441406 188.226562 L 353.460938 188.308594 C 353.648438 189.035156 353.894531 189.871094 354.214844 190.796875 L 354.25 190.898438 C 354.25 191.03125 354.25 191.03125 354.285156 191.167969 C 354.605469 193.636719 353.46875 194 351.578125 194.589844 L 351.550781 194.601562 C 350.960938 194.773438 350.179688 195.007812 349.398438 195.632812 C 348.589844 196.277344 347.726562 197.359375 346.980469 199.238281 L 346.800781 199.554688 C 346.445312 200.128906 346.046875 200.652344 345.601562 201.117188 C 345.148438 201.589844 344.648438 202.007812 344.109375 202.371094 C 343.765625 202.597656 343.394531 202.8125 343.003906 203.003906 L 342.277344 203.324219 C 342.339844 204.066406 342.457031 204.71875 342.613281 205.292969 C 342.792969 205.972656 343.03125 206.515625 343.3125 206.933594 C 343.53125 207.269531 343.800781 207.515625 344.109375 207.671875 C 344.429688 207.824219 344.800781 207.90625 345.21875 207.886719 L 345.484375 207.886719 C 345.957031 207.914062 346.382812 207.953125 346.78125 208.015625 C 347.183594 208.078125 347.574219 208.152344 347.945312 208.242188 C 348.84375 208.441406 349.636719 208.75 350.316406 209.148438 C 351.015625 209.558594 351.605469 210.074219 352.078125 210.691406 C 352.550781 211.308594 352.894531 212.007812 353.097656 212.78125 C 353.285156 213.523438 353.359375 214.339844 353.296875 215.222656 C 353.296875 215.539062 353.257812 215.894531 353.195312 216.257812 C 353.140625 216.621094 353.058594 216.972656 352.976562 217.328125 L 352.90625 217.609375 L 352.777344 217.800781 C 351.488281 220.386719 350.488281 222.765625 349.816406 224.925781 C 349.144531 227.066406 348.78125 228.980469 348.746094 230.6875 C 348.707031 232.230469 348.933594 233.59375 349.433594 234.765625 C 349.917969 235.90625 350.660156 236.886719 351.652344 237.675781 L 351.769531 237.742188 L 351.988281 237.957031 C 353.113281 239.238281 354.058594 240.683594 354.796875 242.296875 C 355.53125 243.894531 356.085938 245.664062 356.449219 247.605469 C 356.8125 249.449219 356.992188 251.445312 357.003906 253.605469 C 357.011719 255.75 356.839844 258.046875 356.503906 260.46875 C 356.292969 263.28125 356.03125 265.804688 355.722656 268.011719 C 355.414062 270.273438 355.039062 272.222656 354.632812 273.855469 C 354.175781 275.671875 353.640625 277.152344 353.023438 278.304688 C 352.378906 279.492188 351.632812 280.335938 350.796875 280.820312 L 350.363281 281.128906 L 349.835938 281.128906 L 349.089844 281.191406 C 348.898438 281.21875 348.726562 281.246094 348.582031 281.289062 L 348.34375 281.382812 L 348.382812 281.789062 L 348.460938 281.789062 C 348.507812 282.035156 348.460938 282.253906 348.652344 282.40625 C 348.753906 282.453125 348.890625 282.480469 349.070312 282.496094 C 349.316406 282.515625 349.597656 282.507812 349.933594 282.46875 C 351.160156 282.363281 352.585938 282.390625 353.839844 282.351562 C 355.3125 280.636719 356.648438 278.070312 357.855469 274.671875 C 359.128906 271.097656 360.246094 266.613281 361.207031 261.230469 L 361.9375 257.128906 L 364.660156 260.222656 C 366.796875 262.628906 368.550781 264.808594 369.902344 266.742188 C 371.265625 268.703125 372.238281 270.433594 372.800781 271.960938 C 373.046875 272.648438 373.226562 273.292969 373.328125 273.910156 C 373.429688 274.539062 373.457031 275.136719 373.390625 275.707031 C 373.347656 276.34375 373.171875 276.933594 372.902344 277.476562 C 372.621094 278.03125 372.238281 278.53125 371.757812 278.96875 C 371.492188 279.203125 371.203125 279.421875 370.867188 279.613281 C 370.546875 279.800781 370.195312 279.964844 369.8125 280.128906 L 369.546875 280.21875 L 369.449219 280.21875 L 368.113281 280.574219 C 367.730469 280.71875 367.40625 280.882812 367.140625 281.054688 C 366.90625 281.207031 366.714844 281.371094 366.585938 281.542969 C 366.515625 281.679688 366.460938 281.835938 366.433594 282 L 366.414062 282.109375 C 368.996094 282.125 371.410156 282.253906 373.726562 282.371094 C 380.597656 282.734375 386.582031 283.050781 394.433594 280.210938 Z M 318.628906 282.351562 L 317.828125 280.855469 C 317.457031 280.121094 317.101562 279.355469 316.765625 278.566406 C 315.128906 278.121094 313.566406 277.605469 312.078125 277.023438 C 310.460938 276.390625 308.933594 275.671875 307.507812 274.902344 C 304.519531 273.257812 301.941406 271.304688 299.8125 269.082031 C 297.667969 266.839844 295.972656 264.335938 294.761719 261.59375 C 293.546875 258.851562 292.816406 255.875 292.628906 252.71875 C 292.445312 249.640625 292.765625 246.382812 293.636719 243.023438 C 294.0625 241.335938 294.636719 239.621094 295.335938 237.886719 C 296.015625 236.199219 296.824219 234.492188 297.761719 232.785156 C 297.886719 232.523438 297.996094 232.242188 298.050781 231.96875 C 298.105469 231.714844 298.132812 231.460938 298.113281 231.207031 C 298.097656 230.933594 298.042969 230.652344 297.953125 230.378906 C 297.859375 230.125 297.742188 229.878906 297.597656 229.664062 L 297.585938 229.644531 C 297.433594 229.398438 297.242188 229.191406 297.042969 229.019531 C 296.832031 228.835938 296.597656 228.683594 296.363281 228.566406 C 296.125 228.445312 295.863281 228.355469 295.589844 228.308594 C 295.316406 228.257812 295.035156 228.238281 294.761719 228.257812 C 294.460938 228.292969 294.179688 228.363281 293.910156 228.457031 C 293.652344 228.546875 293.417969 228.664062 293.199219 228.820312 C 292.972656 228.972656 292.773438 229.164062 292.601562 229.371094 C 292.4375 229.570312 292.292969 229.800781 292.171875 230.042969 L 292.089844 230.289062 L 291.945312 230.433594 C 290.175781 232.984375 288.804688 235.726562 287.832031 238.585938 C 286.847656 241.488281 286.277344 244.511719 286.160156 247.535156 C 286.03125 250.566406 286.339844 253.625 287.078125 256.601562 C 287.804688 259.535156 288.9375 262.394531 290.492188 265.089844 C 292.101562 267.867188 294.097656 270.398438 296.398438 272.621094 C 298.722656 274.875 301.359375 276.808594 304.203125 278.332031 C 306.636719 279.65625 309.214844 280.683594 311.871094 281.371094 C 314.09375 281.953125 316.367188 282.289062 318.648438 282.363281 Z M 318.628906 282.351562 " fill-opacity="1" fill-rule="nonzero"/></g><g clip-path="url(#1cf7144037)"><path fill="#2b0806" d="M 90.15625 282.023438 L 90.15625 534.023438 L 646.652344 534.023438 L 646.652344 282.023438 L 90.15625 282.023438 M 641.582031 528.953125 L 95.121094 528.953125 L 95.121094 286.988281 L 641.582031 286.988281 L 641.582031 528.953125 " fill-opacity="1" fill-rule="nonzero"/></g><g mask="url(#22c54f8705)"><g transform="matrix(1, 0, 0, 1, 122, 170)"><g clip-path="url(#06c02dedca)"><g clip-path="url(#393bf2524c)"><g clip-path="url(#fbfb10b527)"><g clip-path="url(#7c0fe03ff8)"><path fill="#ddc1a7" d="M 250.011719 199.847656 C 249.976562 199.65625 249.933594 199.464844 249.890625 199.277344 C 247.289062 191.828125 238.375 188.949219 231.023438 189.519531 C 224.292969 189.699219 216.304688 193.9375 215.996094 201.300781 C 215.964844 202.367188 216.230469 203.425781 216.675781 204.386719 C 221 212.488281 231.933594 214.648438 240.265625 212.023438 C 245.722656 210.761719 251.046875 205.691406 250.011719 199.847656 Z M 244.332031 167.402344 C 243.433594 162.652344 237.921875 159.738281 233.1875 159.734375 C 223.789062 159.628906 213.109375 165.574219 211.757812 175.425781 C 211.707031 176.335938 211.835938 177.246094 212.121094 178.113281 C 214.230469 184.277344 221.882812 185.789062 227.664062 184.578125 C 235.3125 183.136719 243.546875 177.757812 244.421875 169.542969 C 244.496094 168.792969 244.464844 168.078125 244.332031 167.402344 Z M 227.113281 224.902344 C 225.261719 216.734375 215.988281 212.441406 208.058594 212.90625 C 202.257812 212.726562 195.222656 216.90625 195.808594 223.304688 C 197.363281 232.101562 207.90625 236.558594 216.171875 235.472656 C 221.703125 235.144531 227.789062 230.910156 227.113281 224.902344 Z M 213.4375 153.019531 C 212.894531 149.507812 210.199219 146.402344 206.390625 145.847656 C 196.210938 144.363281 184.957031 152.5 184.578125 162.9375 C 184.535156 167.273438 188.429688 170.445312 192.554688 170.847656 C 201.375 171.6875 210.445312 165.535156 213.023438 157.207031 C 213.53125 155.835938 213.652344 154.394531 213.4375 153.019531 Z M 202.136719 192.816406 C 200.996094 185.941406 196.3125 179.53125 190.308594 175.9375 C 183.375 172.125 175.582031 169.347656 167.574219 169.070312 C 161.6875 168.105469 155.957031 173.394531 156.882812 179.285156 C 157.84375 186.390625 163.765625 191.667969 165.285156 198.644531 C 167.1875 204.460938 164.914062 210.320312 163.730469 216.023438 C 162.496094 220.914062 164.289062 227.105469 169.660156 228.625 C 175.042969 229.632812 180.023438 226.046875 184.171875 223.078125 C 190.753906 217.320312 197.65625 211.175781 201.011719 202.949219 C 202.40625 199.644531 202.691406 196.175781 202.136719 192.816406 Z M 202.136719 192.816406 " fill-opacity="1" fill-rule="nonzero"/></g></g></g><g clip-path="url(#d0d034d169)"><g clip-path="url(#9e16c8314c)"><g clip-path="url(#f9918a6d98)"><path fill="#ddc1a7" d="M 453.820312 184.90625 C 453.785156 184.714844 453.746094 184.523438 453.699219 184.332031 C 451.097656 176.886719 442.183594 174.007812 434.832031 174.578125 C 428.101562 174.757812 420.113281 178.992188 419.804688 186.355469 C 419.773438 187.421875 420.039062 188.480469 420.484375 189.445312 C 424.804688 197.546875 435.742188 199.707031 444.074219 197.078125 C 449.527344 195.820312 454.851562 190.746094 453.816406 184.90625 Z M 448.144531 152.460938 C 447.242188 147.710938 441.730469 144.796875 436.996094 144.792969 C 427.597656 144.683594 416.917969 150.628906 415.566406 160.480469 C 415.515625 161.390625 415.644531 162.304688 415.929688 163.167969 C 418.039062 169.332031 425.691406 170.847656 431.472656 169.632812 C 439.121094 168.191406 447.359375 162.816406 448.230469 154.601562 C 448.304688 153.851562 448.273438 153.136719 448.144531 152.460938 Z M 430.921875 209.957031 C 429.070312 201.792969 419.796875 197.5 411.867188 197.960938 C 406.066406 197.785156 399.03125 201.964844 399.617188 208.359375 C 401.171875 217.160156 411.714844 221.617188 419.980469 220.53125 C 425.511719 220.203125 431.597656 215.96875 430.921875 209.957031 Z M 417.246094 138.078125 C 416.703125 134.5625 414.003906 131.460938 410.199219 130.902344 C 400.019531 129.417969 388.765625 137.558594 388.386719 147.996094 C 388.34375 152.332031 392.238281 155.5 396.363281 155.902344 C 405.179688 156.742188 414.253906 150.59375 416.832031 142.265625 C 417.339844 140.894531 417.460938 139.453125 417.246094 138.078125 Z M 405.945312 177.875 C 404.804688 171 400.117188 164.589844 394.117188 160.992188 C 387.183594 157.183594 379.390625 154.40625 371.382812 154.128906 C 365.496094 153.164062 359.765625 158.453125 360.691406 164.339844 C 361.648438 171.449219 367.574219 176.726562 369.09375 183.703125 C 370.992188 189.519531 368.71875 195.378906 367.535156 201.082031 C 366.304688 205.972656 368.097656 212.160156 373.464844 213.683594 C 378.851562 214.691406 383.832031 211.105469 387.980469 208.132812 C 394.5625 202.378906 401.464844 196.234375 404.816406 188.007812 C 406.210938 184.703125 406.5 181.230469 405.945312 177.875 Z M 405.945312 177.875 " fill-opacity="1" fill-rule="nonzero"/></g></g></g><g clip-path="url(#499315b42b)"><g clip-path="url(#df31f9731a)"><g clip-path="url(#9f20bfb34c)"><path fill="#ddc1a7" d="M 354.726562 284.226562 C 354.695312 284.039062 354.652344 283.847656 354.605469 283.65625 C 352.007812 276.207031 343.089844 273.332031 335.738281 273.902344 C 329.011719 274.082031 321.019531 278.316406 320.710938 285.679688 C 320.683594 286.746094 320.949219 287.804688 321.390625 288.769531 C 325.714844 296.871094 336.648438 299.03125 344.984375 296.402344 C 350.4375 295.144531 355.761719 290.070312 354.726562 284.226562 Z M 349.050781 251.78125 C 348.152344 247.035156 342.636719 244.121094 337.902344 244.113281 C 328.503906 244.007812 317.828125 249.953125 316.472656 259.804688 C 316.421875 260.714844 316.554688 261.625 316.839844 262.492188 C 318.945312 268.65625 326.601562 270.167969 332.378906 268.957031 C 340.027344 267.515625 348.265625 262.136719 349.136719 253.921875 C 349.210938 253.171875 349.179688 252.460938 349.050781 251.78125 Z M 331.828125 309.28125 C 329.980469 301.117188 320.703125 296.820312 312.777344 297.285156 C 306.972656 297.109375 299.9375 301.285156 300.527344 307.683594 C 302.082031 316.484375 312.621094 320.941406 320.886719 319.851562 C 326.417969 319.523438 332.503906 315.289062 331.828125 309.28125 Z M 318.15625 237.402344 C 317.609375 233.886719 314.914062 230.785156 311.105469 230.226562 C 300.925781 228.742188 289.675781 236.882812 289.296875 247.316406 C 289.253906 251.652344 293.144531 254.824219 297.269531 255.226562 C 306.089844 256.066406 315.164062 249.917969 317.738281 241.589844 C 318.25 240.21875 318.367188 238.773438 318.15625 237.402344 Z M 306.855469 277.195312 C 305.710938 270.324219 301.023438 263.910156 295.027344 260.316406 C 288.09375 256.507812 280.296875 253.730469 272.292969 253.449219 C 266.402344 252.488281 260.675781 257.777344 261.601562 263.664062 C 262.558594 270.769531 268.484375 276.050781 270 283.023438 C 271.902344 288.84375 269.628906 294.703125 268.445312 300.402344 C 267.210938 305.296875 269.003906 311.484375 274.375 313.007812 C 279.761719 314.011719 284.742188 310.429688 288.890625 307.457031 C 295.472656 301.699219 302.375 295.558594 305.726562 287.328125 C 307.121094 284.023438 307.410156 280.554688 306.855469 277.195312 Z M 306.855469 277.195312 " fill-opacity="1" fill-rule="nonzero"/></g></g></g><g clip-path="url(#37d59823d3)"><g clip-path="url(#78383f5b6b)"><g clip-path="url(#a15e00a088)"><path fill="#ddc1a7" d="M 155.40625 314.570312 C 155.371094 314.382812 155.332031 314.191406 155.285156 314 C 152.6875 306.550781 143.769531 303.675781 136.417969 304.246094 C 129.691406 304.425781 121.699219 308.660156 121.390625 316.023438 C 121.359375 317.089844 121.628906 318.148438 122.070312 319.113281 C 126.394531 327.214844 137.328125 329.375 145.660156 326.746094 C 151.113281 325.488281 156.4375 320.414062 155.40625 314.570312 Z M 149.730469 282.125 C 148.828125 277.378906 143.316406 274.464844 138.582031 274.457031 C 129.183594 274.351562 118.503906 280.296875 117.152344 290.148438 C 117.101562 291.058594 117.230469 291.96875 117.515625 292.835938 C 119.625 299 127.277344 300.511719 133.058594 299.300781 C 140.707031 297.859375 148.945312 292.480469 149.816406 284.265625 C 149.890625 283.515625 149.859375 282.804688 149.730469 282.125 Z M 132.507812 339.625 C 130.65625 331.460938 121.382812 327.164062 113.453125 327.628906 C 107.652344 327.453125 100.617188 331.628906 101.203125 338.027344 C 102.757812 346.828125 113.300781 351.285156 121.566406 350.195312 C 127.097656 349.867188 133.183594 345.632812 132.507812 339.625 Z M 118.832031 267.746094 C 118.289062 264.230469 115.59375 261.128906 111.785156 260.570312 C 101.605469 259.085938 90.351562 267.226562 89.972656 277.664062 C 89.929688 281.996094 93.824219 285.167969 97.949219 285.570312 C 106.769531 286.410156 115.839844 280.261719 118.417969 271.933594 C 118.925781 270.5625 119.046875 269.117188 118.832031 267.746094 Z M 107.53125 307.539062 C 106.390625 300.667969 101.703125 294.253906 95.703125 290.660156 C 88.773438 286.851562 80.976562 284.074219 72.96875 283.792969 C 67.082031 282.832031 61.351562 288.121094 62.277344 294.007812 C 63.238281 301.113281 69.160156 306.394531 70.679688 313.367188 C 72.578125 319.1875 70.304688 325.046875 69.121094 330.746094 C 67.890625 335.640625 69.683594 341.828125 75.050781 343.351562 C 80.441406 344.355469 85.417969 340.773438 89.566406 337.800781 C 96.148438 332.042969 103.054688 325.902344 106.402344 317.671875 C 107.796875 314.367188 108.089844 310.898438 107.53125 307.539062 Z M 107.53125 307.539062 " fill-opacity="1" fill-rule="nonzero"/></g></g></g></g></g></g><g fill="#2b0806" fill-opacity="1"><g transform="translate(294.133675, 374.256448)"><g><path d="M 18.921875 0.609375 C 15.722656 0.609375 12.890625 -0.0078125 10.421875 -1.25 C 7.953125 -2.5 6.039062 -4.269531 4.6875 -6.5625 C 3.34375 -8.851562 2.671875 -11.5 2.671875 -14.5 L 2.671875 -18.625 C 2.671875 -19.03125 2.875 -19.234375 3.28125 -19.234375 L 4.34375 -19.234375 C 4.75 -19.234375 4.953125 -19.03125 4.953125 -18.625 L 4.953125 -14.421875 C 4.953125 -10.554688 6.238281 -7.441406 8.8125 -5.078125 C 11.382812 -2.710938 14.753906 -1.53125 18.921875 -1.53125 C 23.097656 -1.53125 26.46875 -2.710938 29.03125 -5.078125 C 31.601562 -7.441406 32.890625 -10.554688 32.890625 -14.421875 L 32.890625 -52.8125 C 32.890625 -53.21875 33.09375 -53.421875 33.5 -53.421875 L 34.5625 -53.421875 C 34.976562 -53.421875 35.1875 -53.21875 35.1875 -52.8125 L 35.1875 -14.5 C 35.1875 -11.5 34.507812 -8.851562 33.15625 -6.5625 C 31.8125 -4.269531 29.90625 -2.5 27.4375 -1.25 C 24.96875 -0.0078125 22.128906 0.609375 18.921875 0.609375 Z M 18.921875 0.609375 "/></g></g></g><g fill="#2b0806" fill-opacity="1"><g transform="translate(337.936998, 374.256448)"><g><path d="M 38.84375 0 C 38.488281 0 38.257812 -0.175781 38.15625 -0.53125 L 34.5625 -11.453125 C 34.5625 -11.492188 34.523438 -11.523438 34.453125 -11.546875 C 34.378906 -11.578125 34.316406 -11.59375 34.265625 -11.59375 L 9.234375 -11.59375 C 9.179688 -11.59375 9.113281 -11.578125 9.03125 -11.546875 C 8.957031 -11.523438 8.921875 -11.492188 8.921875 -11.453125 L 5.34375 -0.53125 C 5.238281 -0.175781 5.007812 0 4.65625 0 L 3.59375 0 C 3.382812 0 3.226562 -0.0625 3.125 -0.1875 C 3.019531 -0.3125 2.992188 -0.476562 3.046875 -0.6875 L 20.296875 -52.890625 C 20.398438 -53.242188 20.628906 -53.421875 20.984375 -53.421875 L 22.359375 -53.421875 C 22.710938 -53.421875 22.941406 -53.242188 23.046875 -52.890625 L 40.375 -0.6875 L 40.453125 -0.453125 C 40.453125 -0.359375 40.382812 -0.257812 40.25 -0.15625 C 40.125 -0.0507812 39.984375 0 39.828125 0 Z M 9.6875 -13.890625 C 9.632812 -13.734375 9.710938 -13.65625 9.921875 -13.65625 L 33.5 -13.65625 C 33.75 -13.65625 33.828125 -13.734375 33.734375 -13.890625 L 21.828125 -50.140625 C 21.773438 -50.191406 21.722656 -50.21875 21.671875 -50.21875 C 21.617188 -50.21875 21.566406 -50.191406 21.515625 -50.140625 Z M 9.6875 -13.890625 "/></g></g></g><g fill="#2b0806" fill-opacity="1"><g transform="translate(381.358764, 374.256448)"><g><path d="M 9.234375 0 C 8.828125 0 8.625 -0.203125 8.625 -0.609375 L 8.625 -52.8125 C 8.625 -53.21875 8.828125 -53.421875 9.234375 -53.421875 L 10.296875 -53.421875 C 10.703125 -53.421875 10.90625 -53.21875 10.90625 -52.8125 L 10.90625 -24.1875 C 10.90625 -24.132812 10.941406 -24.09375 11.015625 -24.0625 C 11.097656 -24.039062 11.164062 -24.054688 11.21875 -24.109375 L 39.21875 -53.109375 C 39.425781 -53.316406 39.679688 -53.421875 39.984375 -53.421875 L 41.125 -53.421875 C 41.382812 -53.421875 41.5625 -53.34375 41.65625 -53.1875 C 41.757812 -53.03125 41.710938 -52.851562 41.515625 -52.65625 L 21.75 -31.75 C 21.695312 -31.695312 21.695312 -31.59375 21.75 -31.4375 L 43.421875 -0.765625 L 43.578125 -0.375 C 43.578125 -0.125 43.398438 0 43.046875 0 L 41.59375 0 C 41.28125 0 41.050781 -0.078125 40.90625 -0.234375 L 40.75 -0.453125 L 20.140625 -29.609375 C 20.046875 -29.765625 19.945312 -29.789062 19.84375 -29.6875 L 11.0625 -21.0625 L 10.90625 -20.75 L 10.90625 -0.609375 C 10.90625 -0.203125 10.703125 0 10.296875 0 Z M 9.234375 0 "/></g></g></g><g fill="#2b0806" fill-opacity="1"><g transform="translate(427.293821, 374.256448)"><g/></g></g><g fill="#2b0806" fill-opacity="1"><g transform="translate(135.368054, 468.756444)"><g><path d="M 27.859375 -53.578125 C 32.023438 -53.578125 35.367188 -52.289062 37.890625 -49.71875 C 40.410156 -47.144531 41.671875 -43.75 41.671875 -39.53125 C 41.671875 -35.3125 40.394531 -31.925781 37.84375 -29.375 C 35.300781 -26.832031 31.972656 -25.5625 27.859375 -25.5625 L 10.53125 -25.5625 C 10.375 -25.5625 10.296875 -25.484375 10.296875 -25.328125 L 10.296875 -0.609375 C 10.296875 -0.203125 10.09375 0 9.6875 0 L 8.625 0 C 8.21875 0 8.015625 -0.203125 8.015625 -0.609375 L 8.015625 -52.953125 C 8.015625 -53.367188 8.21875 -53.578125 8.625 -53.578125 Z M 27.859375 -27.703125 C 31.316406 -27.703125 34.097656 -28.78125 36.203125 -30.9375 C 38.316406 -33.101562 39.375 -35.941406 39.375 -39.453125 C 39.375 -43.066406 38.316406 -45.96875 36.203125 -48.15625 C 34.097656 -50.34375 31.316406 -51.4375 27.859375 -51.4375 L 10.53125 -51.4375 C 10.375 -51.4375 10.296875 -51.359375 10.296875 -51.203125 L 10.296875 -27.9375 C 10.296875 -27.78125 10.375 -27.703125 10.53125 -27.703125 Z M 27.859375 -27.703125 "/></g></g></g><g fill="#2b0806" fill-opacity="1"><g transform="translate(180.316073, 468.756444)"><g><path d="M 9.234375 0 C 8.828125 0 8.625 -0.203125 8.625 -0.609375 L 8.625 -52.8125 C 8.625 -53.21875 8.828125 -53.421875 9.234375 -53.421875 L 10.296875 -53.421875 C 10.703125 -53.421875 10.90625 -53.21875 10.90625 -52.8125 L 10.90625 -0.609375 C 10.90625 -0.203125 10.703125 0 10.296875 0 Z M 9.234375 0 "/></g></g></g><g fill="#2b0806" fill-opacity="1"><g transform="translate(199.852052, 468.756444)"><g><path d="M 41.8125 -51.890625 C 41.8125 -51.484375 41.609375 -51.28125 41.203125 -51.28125 L 11.140625 -51.28125 C 10.984375 -51.28125 10.90625 -51.203125 10.90625 -51.046875 L 10.90625 -28.078125 C 10.90625 -27.929688 10.984375 -27.859375 11.140625 -27.859375 L 32.890625 -27.859375 C 33.296875 -27.859375 33.5 -27.65625 33.5 -27.25 L 33.5 -26.328125 C 33.5 -25.921875 33.296875 -25.71875 32.890625 -25.71875 L 11.140625 -25.71875 C 10.984375 -25.71875 10.90625 -25.640625 10.90625 -25.484375 L 10.90625 -2.359375 C 10.90625 -2.210938 10.984375 -2.140625 11.140625 -2.140625 L 41.203125 -2.140625 C 41.609375 -2.140625 41.8125 -1.9375 41.8125 -1.53125 L 41.8125 -0.609375 C 41.8125 -0.203125 41.609375 0 41.203125 0 L 9.234375 0 C 8.828125 0 8.625 -0.203125 8.625 -0.609375 L 8.625 -52.8125 C 8.625 -53.21875 8.828125 -53.421875 9.234375 -53.421875 L 41.203125 -53.421875 C 41.609375 -53.421875 41.8125 -53.21875 41.8125 -52.8125 Z M 41.8125 -51.890625 "/></g></g></g><g fill="#2b0806" fill-opacity="1"><g transform="translate(247.013129, 468.756444)"><g><path d="M 22.671875 0.609375 C 17.273438 0.609375 13.007812 -0.597656 9.875 -3.015625 C 6.75 -5.429688 5.1875 -8.675781 5.1875 -12.75 L 5.1875 -15.5625 C 5.1875 -15.96875 5.390625 -16.171875 5.796875 -16.171875 L 6.71875 -16.171875 C 7.125 -16.171875 7.328125 -15.96875 7.328125 -15.5625 L 7.328125 -12.890625 C 7.328125 -9.429688 8.710938 -6.671875 11.484375 -4.609375 C 14.253906 -2.554688 18.054688 -1.53125 22.890625 -1.53125 C 27.472656 -1.53125 31.007812 -2.492188 33.5 -4.421875 C 35.988281 -6.359375 37.234375 -9.03125 37.234375 -12.4375 C 37.234375 -14.519531 36.722656 -16.320312 35.703125 -17.84375 C 34.691406 -19.375 33.078125 -20.828125 30.859375 -22.203125 C 28.648438 -23.578125 25.535156 -25.128906 21.515625 -26.859375 C 17.453125 -28.640625 14.441406 -30.078125 12.484375 -31.171875 C 10.523438 -32.265625 8.984375 -33.625 7.859375 -35.25 C 6.742188 -36.882812 6.1875 -38.972656 6.1875 -41.515625 C 6.1875 -45.585938 7.53125 -48.691406 10.21875 -50.828125 C 12.914062 -52.960938 16.785156 -54.03125 21.828125 -54.03125 C 27.316406 -54.03125 31.550781 -52.820312 34.53125 -50.40625 C 37.507812 -47.988281 39 -44.71875 39 -40.59375 L 39 -38.609375 C 39 -38.203125 38.796875 -38 38.390625 -38 L 37.3125 -38 C 36.90625 -38 36.703125 -38.203125 36.703125 -38.609375 L 36.703125 -40.453125 C 36.703125 -43.910156 35.390625 -46.679688 32.765625 -48.765625 C 30.148438 -50.847656 26.453125 -51.890625 21.671875 -51.890625 C 17.398438 -51.890625 14.117188 -51.023438 11.828125 -49.296875 C 9.535156 -47.566406 8.390625 -45.023438 8.390625 -41.671875 C 8.390625 -39.484375 8.898438 -37.6875 9.921875 -36.28125 C 10.941406 -34.882812 12.378906 -33.691406 14.234375 -32.703125 C 16.085938 -31.710938 19 -30.398438 22.96875 -28.765625 C 28.769531 -26.328125 32.976562 -23.9375 35.59375 -21.59375 C 38.21875 -19.257812 39.53125 -16.257812 39.53125 -12.59375 C 39.53125 -8.625 38.066406 -5.429688 35.140625 -3.015625 C 32.210938 -0.597656 28.054688 0.609375 22.671875 0.609375 Z M 22.671875 0.609375 "/></g></g></g><g fill="#2b0806" fill-opacity="1"><g transform="translate(291.426961, 468.756444)"><g/></g></g><g fill="#2b0806" fill-opacity="1"><g transform="translate(306.689442, 468.756444)"><g><path d="M 4.65625 0 C 4.25 0 4.046875 -0.203125 4.046875 -0.609375 L 4.046875 -1.75 C 4.046875 -1.957031 4.125 -2.210938 4.28125 -2.515625 L 34.1875 -50.984375 C 34.238281 -51.023438 34.238281 -51.082031 34.1875 -51.15625 C 34.132812 -51.238281 34.082031 -51.28125 34.03125 -51.28125 L 4.65625 -51.28125 C 4.25 -51.28125 4.046875 -51.484375 4.046875 -51.890625 L 4.046875 -52.8125 C 4.046875 -53.21875 4.25 -53.421875 4.65625 -53.421875 L 36.25 -53.421875 C 36.65625 -53.421875 36.859375 -53.21875 36.859375 -52.8125 L 36.859375 -51.65625 C 36.859375 -51.457031 36.78125 -51.207031 36.625 -50.90625 L 6.71875 -2.4375 C 6.664062 -2.382812 6.664062 -2.320312 6.71875 -2.25 C 6.769531 -2.175781 6.820312 -2.140625 6.875 -2.140625 L 36.25 -2.140625 C 36.65625 -2.140625 36.859375 -1.9375 36.859375 -1.53125 L 36.859375 -0.609375 C 36.859375 -0.203125 36.65625 0 36.25 0 Z M 4.65625 0 "/></g></g></g><g fill="#2b0806" fill-opacity="1"><g transform="translate(348.203387, 468.756444)"><g/></g></g><g fill="#2b0806" fill-opacity="1"><g transform="translate(363.465868, 468.756444)"><g><path d="M 9.234375 0 C 8.828125 0 8.625 -0.203125 8.625 -0.609375 L 8.625 -52.8125 C 8.625 -53.21875 8.828125 -53.421875 9.234375 -53.421875 L 10.296875 -53.421875 C 10.703125 -53.421875 10.90625 -53.21875 10.90625 -52.8125 L 10.90625 -24.1875 C 10.90625 -24.132812 10.941406 -24.09375 11.015625 -24.0625 C 11.097656 -24.039062 11.164062 -24.054688 11.21875 -24.109375 L 39.21875 -53.109375 C 39.425781 -53.316406 39.679688 -53.421875 39.984375 -53.421875 L 41.125 -53.421875 C 41.382812 -53.421875 41.5625 -53.34375 41.65625 -53.1875 C 41.757812 -53.03125 41.710938 -52.851562 41.515625 -52.65625 L 21.75 -31.75 C 21.695312 -31.695312 21.695312 -31.59375 21.75 -31.4375 L 43.421875 -0.765625 L 43.578125 -0.375 C 43.578125 -0.125 43.398438 0 43.046875 0 L 41.59375 0 C 41.28125 0 41.050781 -0.078125 40.90625 -0.234375 L 40.75 -0.453125 L 20.140625 -29.609375 C 20.046875 -29.765625 19.945312 -29.789062 19.84375 -29.6875 L 11.0625 -21.0625 L 10.90625 -20.75 L 10.90625 -0.609375 C 10.90625 -0.203125 10.703125 0 10.296875 0 Z M 9.234375 0 "/></g></g></g><g fill="#2b0806" fill-opacity="1"><g transform="translate(409.405929, 468.756444)"><g><path d="M 23.65625 0.53125 C 20.300781 0.53125 17.335938 -0.164062 14.765625 -1.5625 C 12.191406 -2.957031 10.191406 -4.914062 8.765625 -7.4375 C 7.347656 -9.957031 6.640625 -12.867188 6.640625 -16.171875 L 6.640625 -37.171875 C 6.640625 -40.472656 7.347656 -43.40625 8.765625 -45.96875 C 10.191406 -48.539062 12.191406 -50.523438 14.765625 -51.921875 C 17.335938 -53.328125 20.300781 -54.03125 23.65625 -54.03125 C 27.0625 -54.03125 30.0625 -53.328125 32.65625 -51.921875 C 35.25 -50.523438 37.257812 -48.539062 38.6875 -45.96875 C 40.113281 -43.40625 40.828125 -40.472656 40.828125 -37.171875 L 40.828125 -16.171875 C 40.828125 -12.867188 40.113281 -9.957031 38.6875 -7.4375 C 37.257812 -4.914062 35.25 -2.957031 32.65625 -1.5625 C 30.0625 -0.164062 27.0625 0.53125 23.65625 0.53125 Z M 23.65625 -1.53125 C 28.132812 -1.53125 31.734375 -2.863281 34.453125 -5.53125 C 37.171875 -8.207031 38.53125 -11.734375 38.53125 -16.109375 L 38.53125 -37.234375 C 38.53125 -41.609375 37.171875 -45.144531 34.453125 -47.84375 C 31.734375 -50.539062 28.132812 -51.890625 23.65625 -51.890625 C 19.226562 -51.890625 15.664062 -50.539062 12.96875 -47.84375 C 10.269531 -45.144531 8.921875 -41.609375 8.921875 -37.234375 L 8.921875 -16.109375 C 8.921875 -11.734375 10.269531 -8.207031 12.96875 -5.53125 C 15.664062 -2.863281 19.226562 -1.53125 23.65625 -1.53125 Z M 23.65625 -1.53125 "/></g></g></g><g fill="#2b0806" fill-opacity="1"><g transform="translate(456.872266, 468.756444)"><g><path d="M 38.15625 -53.421875 C 38.5625 -53.421875 38.765625 -53.21875 38.765625 -52.8125 L 38.765625 -51.890625 C 38.765625 -51.484375 38.5625 -51.28125 38.15625 -51.28125 L 22.359375 -51.28125 C 22.203125 -51.28125 22.125 -51.203125 22.125 -51.046875 L 22.125 -0.609375 C 22.125 -0.203125 21.921875 0 21.515625 0 L 20.453125 0 C 20.046875 0 19.84375 -0.203125 19.84375 -0.609375 L 19.84375 -51.046875 C 19.84375 -51.203125 19.765625 -51.28125 19.609375 -51.28125 L 4.578125 -51.28125 C 4.171875 -51.28125 3.96875 -51.484375 3.96875 -51.890625 L 3.96875 -52.8125 C 3.96875 -53.21875 4.171875 -53.421875 4.578125 -53.421875 Z M 38.15625 -53.421875 "/></g></g></g><g fill="#2b0806" fill-opacity="1"><g transform="translate(499.607226, 468.756444)"><g><path d="M 41.8125 -51.890625 C 41.8125 -51.484375 41.609375 -51.28125 41.203125 -51.28125 L 11.140625 -51.28125 C 10.984375 -51.28125 10.90625 -51.203125 10.90625 -51.046875 L 10.90625 -28.078125 C 10.90625 -27.929688 10.984375 -27.859375 11.140625 -27.859375 L 32.890625 -27.859375 C 33.296875 -27.859375 33.5 -27.65625 33.5 -27.25 L 33.5 -26.328125 C 33.5 -25.921875 33.296875 -25.71875 32.890625 -25.71875 L 11.140625 -25.71875 C 10.984375 -25.71875 10.90625 -25.640625 10.90625 -25.484375 L 10.90625 -2.359375 C 10.90625 -2.210938 10.984375 -2.140625 11.140625 -2.140625 L 41.203125 -2.140625 C 41.609375 -2.140625 41.8125 -1.9375 41.8125 -1.53125 L 41.8125 -0.609375 C 41.8125 -0.203125 41.609375 0 41.203125 0 L 9.234375 0 C 8.828125 0 8.625 -0.203125 8.625 -0.609375 L 8.625 -52.8125 C 8.625 -53.21875 8.828125 -53.421875 9.234375 -53.421875 L 41.203125 -53.421875 C 41.609375 -53.421875 41.8125 -53.21875 41.8125 -52.8125 Z M 41.8125 -51.890625 "/></g></g></g><g fill="#2b0806" fill-opacity="1"><g transform="translate(546.768303, 468.756444)"><g><path d="M 9.234375 0 C 8.828125 0 8.625 -0.203125 8.625 -0.609375 L 8.625 -52.8125 C 8.625 -53.21875 8.828125 -53.421875 9.234375 -53.421875 L 10.453125 -53.421875 C 10.804688 -53.421875 11.035156 -53.289062 11.140625 -53.03125 L 27.09375 -28.15625 C 27.144531 -28.101562 27.191406 -28.078125 27.234375 -28.078125 C 27.285156 -28.078125 27.335938 -28.101562 27.390625 -28.15625 L 43.421875 -53.03125 C 43.578125 -53.289062 43.804688 -53.421875 44.109375 -53.421875 L 45.328125 -53.421875 C 45.734375 -53.421875 45.9375 -53.21875 45.9375 -52.8125 L 45.9375 -0.609375 C 45.9375 -0.203125 45.734375 0 45.328125 0 L 44.265625 0 C 43.859375 0 43.65625 -0.203125 43.65625 -0.609375 L 43.65625 -48.6875 C 43.65625 -48.789062 43.613281 -48.851562 43.53125 -48.875 C 43.457031 -48.90625 43.394531 -48.867188 43.34375 -48.765625 L 28.46875 -25.484375 C 28.363281 -25.234375 28.132812 -25.109375 27.78125 -25.109375 L 26.9375 -25.109375 C 26.632812 -25.109375 26.40625 -25.234375 26.25 -25.484375 L 11.21875 -48.765625 C 11.164062 -48.867188 11.097656 -48.90625 11.015625 -48.875 C 10.941406 -48.851562 10.90625 -48.789062 10.90625 -48.6875 L 10.90625 -0.609375 C 10.90625 -0.203125 10.703125 0 10.296875 0 Z M 9.234375 0 "/></g></g></g><g fill="#2b0806" fill-opacity="1"><g transform="translate(137.406074, 511.189538)"><g><path d="M 15.433594 -19.46875 C 15.640625 -19.882812 15.460938 -20.179688 15.015625 -20.179688 L 1.363281 -20.179688 C 0.980469 -20.179688 0.773438 -19.972656 0.773438 -19.585938 L 0.773438 -16.738281 C 0.773438 -16.351562 0.980469 -16.144531 1.363281 -16.144531 L 8.917969 -16.144531 L 0.535156 -0.710938 C 0.328125 -0.296875 0.503906 0 0.949219 0 L 11.097656 0 C 14.363281 0 16.261719 -1.691406 16.855469 -4.035156 L 7.019531 -4.035156 Z M 15.433594 -19.46875 "/></g></g></g><g fill="#2b0806" fill-opacity="1"><g transform="translate(160.376437, 511.189538)"><g/></g></g><g fill="#2b0806" fill-opacity="1"><g transform="translate(174.02807, 511.189538)"><g><path d="M 21.21875 -19.675781 C 21.128906 -20.003906 20.921875 -20.179688 20.566406 -20.179688 L 17.507812 -20.179688 C 17.183594 -20.179688 16.945312 -20.003906 16.855469 -19.675781 L 13.074219 -7.566406 L 9.347656 -19.675781 C 9.257812 -20.003906 9.023438 -20.179688 8.695312 -20.179688 L 5.640625 -20.179688 C 5.28125 -20.179688 5.074219 -20.003906 4.984375 -19.675781 L 0.148438 0.59375 C 2.9375 0.59375 5.222656 -1.484375 6.113281 -5.847656 L 7.539062 -12.671875 L 11.722656 0.59375 C 13.742188 0.0585938 15.105469 -1.214844 16.441406 -5.519531 L 18.667969 -12.65625 L 21.191406 -0.535156 C 21.25 -0.179688 21.488281 0 21.84375 0 L 25.226562 0 C 25.640625 0 25.847656 -0.265625 25.761719 -0.652344 Z M 21.21875 -19.675781 "/></g></g></g><g fill="#2b0806" fill-opacity="1"><g transform="translate(206.109424, 511.189538)"><g><path d="M 10.417969 -16.144531 C 10.800781 -16.144531 11.011719 -16.351562 11.011719 -16.738281 L 11.011719 -19.585938 C 11.011719 -19.972656 10.800781 -20.179688 10.417969 -20.179688 L 1.394531 -20.179688 C 1.007812 -20.179688 0.800781 -19.972656 0.800781 -19.585938 L 0.800781 -16.738281 C 0.800781 -16.351562 1.007812 -16.144531 1.394531 -16.144531 L 6.929688 -16.144531 C 4.984375 -15.386719 3.679688 -13.339844 3.679688 -10.238281 L 3.679688 -4.035156 L 1.394531 -4.035156 C 1.007812 -4.035156 0.800781 -3.828125 0.800781 -3.441406 L 0.800781 -0.59375 C 0.800781 -0.207031 1.007812 0 1.394531 0 L 10.417969 0 C 10.800781 0 11.011719 -0.207031 11.011719 -0.59375 L 11.011719 -3.441406 C 11.011719 -3.828125 10.800781 -4.035156 10.417969 -4.035156 L 8.132812 -4.035156 L 8.132812 -16.144531 Z M 10.417969 -16.144531 "/></g></g></g><g fill="#2b0806" fill-opacity="1"><g transform="translate(223.856541, 511.189538)"><g><path d="M 2.328125 -4.035156 C 4.199219 -4.910156 5.578125 -6.558594 5.949219 -9.289062 L 6.261719 -9.40625 C 8.191406 -10.179688 9.050781 -11.457031 9.050781 -13.503906 L 6.054688 -12.316406 L 6.054688 -19.585938 C 6.054688 -19.972656 5.847656 -20.179688 5.460938 -20.179688 L 2.195312 -20.179688 C 1.808594 -20.179688 1.601562 -19.972656 1.601562 -19.585938 L 1.601562 -10.519531 C 0.03125 -9.734375 -0.683594 -8.503906 -0.683594 -6.648438 L 1.601562 -7.554688 L 1.601562 -0.59375 C 1.601562 -0.207031 1.808594 0 2.195312 0 L 12.40625 0 C 12.789062 0 13 -0.207031 13 -0.59375 L 13 -3.441406 C 13 -3.828125 12.789062 -4.035156 12.40625 -4.035156 Z M 2.328125 -4.035156 "/></g></g></g><g fill="#2b0806" fill-opacity="1"><g transform="translate(242.939164, 511.189538)"><g><path d="M 11.160156 0.296875 C 17.390625 0.296875 21.546875 -3.738281 21.546875 -10.121094 C 21.546875 -16.441406 17.507812 -20.476562 11.1875 -20.476562 C 4.957031 -20.476562 0.800781 -16.53125 0.800781 -10.148438 C 0.800781 -3.859375 4.835938 0.296875 11.160156 0.296875 Z M 11.160156 -3.738281 C 7.894531 -3.738281 5.253906 -6.113281 5.253906 -10.148438 C 5.253906 -14.15625 7.894531 -16.441406 11.160156 -16.441406 C 14.484375 -16.441406 17.09375 -14.125 17.09375 -10.148438 C 17.09375 -6.113281 14.484375 -3.738281 11.160156 -3.738281 Z M 11.160156 -3.738281 "/></g></g></g><g fill="#2b0806" fill-opacity="1"><g transform="translate(271.221799, 511.189538)"><g><path d="M 6.320312 -20.773438 C 10.148438 -21.042969 13.445312 -22.644531 13.445312 -24.957031 C 13.445312 -25.253906 13.324219 -25.402344 12.96875 -25.402344 L 9.824219 -25.402344 C 9.46875 -25.402344 9.378906 -25.195312 9.023438 -24.691406 Z M 8.664062 0.296875 C 12.199219 0.296875 16.441406 -1.214844 16.441406 -6.171875 C 16.441406 -10.503906 13.234375 -11.484375 10.296875 -12.136719 C 7.984375 -12.640625 5.875 -12.878906 5.875 -14.808594 C 5.875 -16.175781 6.914062 -16.855469 8.488281 -16.855469 C 9.972656 -16.855469 11.128906 -16.261719 11.457031 -14.601562 C 11.515625 -14.214844 11.722656 -14.039062 12.078125 -14.039062 L 15.285156 -14.039062 C 15.667969 -14.039062 15.878906 -14.246094 15.847656 -14.660156 C 15.519531 -18.785156 11.960938 -20.476562 8.578125 -20.476562 C 5.046875 -20.476562 1.425781 -18.578125 1.425781 -14.1875 C 1.425781 -10.503906 3.976562 -9.4375 6.378906 -8.785156 C 9.140625 -8.042969 11.988281 -7.925781 11.988281 -5.519531 C 11.988281 -3.859375 10.59375 -3.324219 9.109375 -3.324219 C 7.183594 -3.324219 5.726562 -4.242188 5.460938 -6.082031 C 5.429688 -6.441406 5.222656 -6.648438 4.867188 -6.648438 L 1.394531 -6.648438 C 1.007812 -6.648438 0.800781 -6.441406 0.800781 -6.054688 C 1.039062 -1.542969 4.777344 0.296875 8.664062 0.296875 Z M 8.664062 0.296875 "/></g></g></g><g fill="#2b0806" fill-opacity="1"><g transform="translate(294.518627, 511.189538)"><g><path d="M 11.097656 0.238281 C 15.460938 0.238281 19.351562 -2.167969 20.449219 -6.230469 C 20.566406 -6.648438 20.328125 -6.886719 19.914062 -6.886719 L 16.382812 -6.886719 C 16.054688 -6.886719 15.847656 -6.738281 15.699219 -6.410156 C 15.015625 -4.71875 13.207031 -3.796875 11.097656 -3.796875 C 7.835938 -3.796875 5.195312 -6.113281 5.195312 -10.148438 C 5.195312 -14.15625 7.835938 -16.472656 11.097656 -16.472656 C 13.175781 -16.472656 14.988281 -15.550781 15.699219 -13.890625 C 15.847656 -13.5625 16.054688 -13.414062 16.382812 -13.414062 L 19.882812 -13.414062 C 20.300781 -13.414062 20.535156 -13.652344 20.417969 -14.066406 C 19.289062 -18.074219 15.550781 -20.507812 11.128906 -20.507812 C 5.492188 -20.507812 0.742188 -16.53125 0.742188 -10.148438 C 0.742188 -3.859375 5.371094 0.238281 11.097656 0.238281 Z M 11.097656 0.238281 "/></g></g></g><g fill="#2b0806" fill-opacity="1"><g transform="translate(321.614179, 511.189538)"><g><path d="M 10.417969 -16.144531 C 10.800781 -16.144531 11.011719 -16.351562 11.011719 -16.738281 L 11.011719 -19.585938 C 11.011719 -19.972656 10.800781 -20.179688 10.417969 -20.179688 L 1.394531 -20.179688 C 1.007812 -20.179688 0.800781 -19.972656 0.800781 -19.585938 L 0.800781 -16.738281 C 0.800781 -16.351562 1.007812 -16.144531 1.394531 -16.144531 L 6.929688 -16.144531 C 4.984375 -15.386719 3.679688 -13.339844 3.679688 -10.238281 L 3.679688 -4.035156 L 1.394531 -4.035156 C 1.007812 -4.035156 0.800781 -3.828125 0.800781 -3.441406 L 0.800781 -0.59375 C 0.800781 -0.207031 1.007812 0 1.394531 0 L 10.417969 0 C 10.800781 0 11.011719 -0.207031 11.011719 -0.59375 L 11.011719 -3.441406 C 11.011719 -3.828125 10.800781 -4.035156 10.417969 -4.035156 L 8.132812 -4.035156 L 8.132812 -16.144531 Z M 10.417969 -16.144531 "/></g></g></g><g fill="#2b0806" fill-opacity="1"><g transform="translate(339.361302, 511.189538)"><g/></g></g><g fill="#2b0806" fill-opacity="1"><g transform="translate(353.012939, 511.189538)"><g><path d="M 7.003906 0 C 14.511719 0 17.925781 -4.390625 17.925781 -10.089844 C 17.925781 -15.789062 14.484375 -20.179688 7.003906 -20.179688 L 2.195312 -20.179688 C 1.808594 -20.179688 1.601562 -19.972656 1.601562 -19.585938 L 1.601562 -0.59375 C 1.601562 -0.207031 1.808594 0 2.195312 0 Z M 6.054688 -16.144531 L 7.417969 -16.144531 C 11.753906 -16.144531 13.472656 -13.445312 13.472656 -10.089844 C 13.472656 -6.738281 11.722656 -4.035156 7.417969 -4.035156 L 6.054688 -4.035156 Z M 6.054688 -16.144531 "/></g></g></g><g fill="#2b0806" fill-opacity="1"><g transform="translate(377.674928, 511.189538)"><g><path d="M 11.160156 0.296875 C 17.390625 0.296875 21.546875 -3.738281 21.546875 -10.121094 C 21.546875 -16.441406 17.507812 -20.476562 11.1875 -20.476562 C 4.957031 -20.476562 0.800781 -16.53125 0.800781 -10.148438 C 0.800781 -3.859375 4.835938 0.296875 11.160156 0.296875 Z M 11.160156 -3.738281 C 7.894531 -3.738281 5.253906 -6.113281 5.253906 -10.148438 C 5.253906 -14.15625 7.894531 -16.441406 11.160156 -16.441406 C 14.484375 -16.441406 17.09375 -14.125 17.09375 -10.148438 C 17.09375 -6.113281 14.484375 -3.738281 11.160156 -3.738281 Z M 11.160156 -3.738281 "/></g></g></g><g fill="#2b0806" fill-opacity="1"><g transform="translate(405.957563, 511.189538)"><g/></g></g><g fill="#2b0806" fill-opacity="1"><g transform="translate(419.6092, 511.189538)"><g><path d="M 15.433594 -19.46875 C 15.640625 -19.882812 15.460938 -20.179688 15.015625 -20.179688 L 1.363281 -20.179688 C 0.980469 -20.179688 0.773438 -19.972656 0.773438 -19.585938 L 0.773438 -16.738281 C 0.773438 -16.351562 0.980469 -16.144531 1.363281 -16.144531 L 8.917969 -16.144531 L 0.535156 -0.710938 C 0.328125 -0.296875 0.503906 0 0.949219 0 L 11.097656 0 C 14.363281 0 16.261719 -1.691406 16.855469 -4.035156 L 7.019531 -4.035156 Z M 15.433594 -19.46875 "/></g></g></g><g fill="#2b0806" fill-opacity="1"><g transform="translate(442.579568, 511.189538)"><g><path d="M 18.609375 -7.539062 L 14.511719 -20.773438 C 12.496094 -20.238281 11.011719 -19.261719 9.703125 -14.957031 L 7.480469 -7.566406 L 4.957031 -19.644531 C 4.898438 -20.003906 4.660156 -20.179688 4.304688 -20.179688 L 0.921875 -20.179688 C 0.503906 -20.179688 0.296875 -19.914062 0.386719 -19.527344 L 4.925781 -0.503906 C 5.015625 -0.179688 5.222656 0 5.578125 0 L 8.636719 0 C 8.960938 0 9.199219 -0.179688 9.289062 -0.503906 L 13.074219 -12.851562 L 16.796875 -0.503906 C 16.886719 -0.179688 17.125 0 17.449219 0 L 20.507812 0 C 20.863281 0 21.070312 -0.179688 21.160156 -0.503906 L 25.96875 -20.773438 C 23.179688 -20.773438 21.011719 -18.992188 20.089844 -14.632812 Z M 18.609375 -7.539062 "/></g></g></g><g fill="#2b0806" fill-opacity="1"><g transform="translate(474.660927, 511.189538)"><g><path d="M 10.417969 -16.144531 C 10.800781 -16.144531 11.011719 -16.351562 11.011719 -16.738281 L 11.011719 -19.585938 C 11.011719 -19.972656 10.800781 -20.179688 10.417969 -20.179688 L 1.394531 -20.179688 C 1.007812 -20.179688 0.800781 -19.972656 0.800781 -19.585938 L 0.800781 -16.738281 C 0.800781 -16.351562 1.007812 -16.144531 1.394531 -16.144531 L 6.929688 -16.144531 C 4.984375 -15.386719 3.679688 -13.339844 3.679688 -10.238281 L 3.679688 -4.035156 L 1.394531 -4.035156 C 1.007812 -4.035156 0.800781 -3.828125 0.800781 -3.441406 L 0.800781 -0.59375 C 0.800781 -0.207031 1.007812 0 1.394531 0 L 10.417969 0 C 10.800781 0 11.011719 -0.207031 11.011719 -0.59375 L 11.011719 -3.441406 C 11.011719 -3.828125 10.800781 -4.035156 10.417969 -4.035156 L 8.132812 -4.035156 L 8.132812 -16.144531 Z M 10.417969 -16.144531 "/></g></g></g><g fill="#2b0806" fill-opacity="1"><g transform="translate(492.408031, 511.189538)"><g><path d="M 12.582031 -16.144531 C 12.96875 -16.144531 13.175781 -16.351562 13.175781 -16.738281 L 13.175781 -19.585938 C 13.175781 -19.972656 12.96875 -20.179688 12.582031 -20.179688 L 2.078125 -20.179688 C 1.691406 -20.179688 1.484375 -19.972656 1.484375 -19.585938 L 1.484375 -16.738281 C 1.484375 -16.351562 1.691406 -16.144531 2.078125 -16.144531 L 4.734375 -16.144531 C 2.789062 -15.386719 1.484375 -13.339844 1.484375 -10.238281 L 1.484375 -0.59375 C 1.484375 -0.207031 1.691406 0 2.078125 0 L 12.582031 0 C 12.96875 0 13.175781 -0.207031 13.175781 -0.59375 L 13.175781 -3.441406 C 13.175781 -3.828125 12.96875 -4.035156 12.582031 -4.035156 L 5.933594 -4.035156 L 5.933594 -11.261719 C 6.648438 -9.554688 8.488281 -8.398438 11.277344 -8.398438 L 12.285156 -8.398438 C 12.671875 -8.398438 12.878906 -8.605469 12.878906 -8.992188 L 12.878906 -11.839844 C 12.878906 -12.226562 12.671875 -12.433594 12.285156 -12.433594 L 5.933594 -12.433594 L 5.933594 -16.144531 Z M 12.582031 -16.144531 "/></g></g></g><g fill="#2b0806" fill-opacity="1"><g transform="translate(512.737077, 511.189538)"><g><path d="M 14.691406 -3.679688 C 13.011719 -6.023438 11.054688 -7.300781 8.976562 -7.820312 C 13.726562 -8.011719 15.582031 -10.3125 15.582031 -13.859375 C 15.582031 -17.746094 13.5625 -20.179688 8.308594 -20.179688 L 5.609375 -20.179688 L 5.609375 -20.164062 C 5.566406 -20.179688 5.519531 -20.179688 5.460938 -20.179688 L 2.195312 -20.179688 C 1.808594 -20.179688 1.601562 -19.972656 1.601562 -19.585938 L 1.601562 0.59375 C 4.183594 0.296875 6.054688 -1.898438 6.054688 -5.609375 L 6.054688 -7.804688 L 6.261719 -7.804688 L 11.484375 -0.386719 C 11.691406 -0.117188 11.902344 0 12.199219 0 L 16.410156 0 C 16.738281 0 16.917969 -0.148438 16.917969 -0.386719 C 16.917969 -0.476562 16.886719 -0.59375 16.796875 -0.710938 Z M 11.128906 -13.710938 C 11.128906 -11.039062 8.785156 -11.011719 7.863281 -11.011719 L 6.054688 -11.011719 L 6.054688 -16.324219 L 7.863281 -16.324219 C 8.8125 -16.324219 11.128906 -16.351562 11.128906 -13.710938 Z M 11.128906 -13.710938 "/></g></g></g><g fill="#2b0806" fill-opacity="1"><g transform="translate(535.796447, 511.189538)"><g><path d="M 15.433594 -19.46875 C 15.640625 -19.882812 15.460938 -20.179688 15.015625 -20.179688 L 1.363281 -20.179688 C 0.980469 -20.179688 0.773438 -19.972656 0.773438 -19.585938 L 0.773438 -16.738281 C 0.773438 -16.351562 0.980469 -16.144531 1.363281 -16.144531 L 8.917969 -16.144531 L 0.535156 -0.710938 C 0.328125 -0.296875 0.503906 0 0.949219 0 L 11.097656 0 C 14.363281 0 16.261719 -1.691406 16.855469 -4.035156 L 7.019531 -4.035156 Z M 15.433594 -19.46875 "/></g></g></g><g fill="#2b0806" fill-opacity="1"><g transform="translate(558.766796, 511.189538)"><g><path d="M 17.539062 3.859375 C 16.917969 3.859375 16.53125 3.589844 16.53125 2.699219 C 16.53125 1.78125 16.976562 1.039062 17.613281 0 L 18.28125 0 C 18.609375 0 18.816406 -0.179688 18.816406 -0.445312 C 18.816406 -0.503906 18.785156 -0.59375 18.757812 -0.683594 L 11.605469 -19.707031 C 11.484375 -20.003906 11.246094 -20.179688 10.921875 -20.179688 L 8.160156 -20.179688 C 7.835938 -20.179688 7.597656 -20.003906 7.480469 -19.707031 L -0.179688 0.59375 C 3.207031 0 5.773438 -1.972656 7.195312 -6.574219 C 7.863281 -5.074219 9.4375 -4.066406 11.839844 -4.066406 L 12.925781 -4.066406 L 14.097656 -0.476562 C 14.214844 -0.117188 14.421875 0 14.75 0 L 15.535156 0 C 14.570312 0.996094 13.621094 2.121094 13.621094 3.472656 C 13.621094 5.015625 14.691406 5.933594 17.035156 5.933594 L 18.429688 5.933594 C 18.816406 5.933594 19.023438 5.726562 19.023438 5.34375 L 19.023438 4.453125 C 19.023438 4.066406 18.816406 3.859375 18.429688 3.859375 Z M 9.554688 -14.304688 L 11.722656 -7.714844 L 7.554688 -7.714844 Z M 9.554688 -14.304688 "/></g></g></g><g fill="#2b0806" fill-opacity="1"><g transform="translate(583.636507, 511.189538)"><g><path d="M 0.710938 -20.179688 C 0.328125 -20.179688 0.117188 -19.972656 0.117188 -19.585938 L 0.117188 -16.738281 C 0.117188 -16.351562 0.328125 -16.144531 0.710938 -16.144531 L 8.546875 -16.144531 C 6.765625 -15.386719 5.578125 -13.25 5.578125 -10.535156 L 5.578125 -0.59375 C 5.578125 -0.207031 5.785156 0 6.171875 0 L 9.4375 0 C 9.824219 0 10.03125 -0.207031 10.03125 -0.59375 L 10.03125 -16.144531 L 14.898438 -16.144531 C 15.285156 -16.144531 15.492188 -16.351562 15.492188 -16.738281 L 15.492188 -19.585938 C 15.492188 -19.972656 15.285156 -20.179688 14.898438 -20.179688 Z M 0.710938 -20.179688 "/></g></g></g></svg>